<?xml version="1.0" standalone="no"?>
<!DOCTYPE svg PUBLIC "-//W3C//DTD SVG 20010904//EN"
 "http://www.w3.org/TR/2001/REC-SVG-20010904/DTD/svg10.dtd">
<svg version="1.0" xmlns="http://www.w3.org/2000/svg"
 width="512.000000pt" height="512.000000pt" viewBox="0 0 512.000000 512.000000"
 preserveAspectRatio="xMidYMid meet">

<g transform="translate(0.000000,512.000000) scale(0.100000,-0.100000)"
fill="#000000" stroke="none">
<path d="M916 5109 c-209 -31 -418 -131 -580 -280 -131 -120 -250 -322 -304
-516 l-27 -98 0 -1655 0 -1655 27 -98 c107 -386 389 -668 775 -775 l98 -27
1655 0 1655 0 98 27 c386 107 668 389 775 775 l27 98 0 1655 0 1655 -27 98
c-106 385 -390 670 -773 775 l-100 27 -1620 1 c-891 1 -1647 -2 -1679 -7z
m2427 -1907 c427 -427 777 -784 777 -792 0 -9 -38 -53 -84 -99 -63 -62 -88
-82 -102 -77 -11 3 -320 307 -688 676 -430 430 -677 670 -689 670 -13 0 -262
-242 -695 -675 -371 -371 -680 -675 -686 -675 -17 0 -176 163 -176 180 0 13
1547 1570 1560 1570 3 0 355 -350 783 -778z m-182 -459 c323 -324 592 -598
598 -610 8 -15 11 -174 11 -512 l0 -491 -334 0 -335 0 -4 373 c-4 411 -3 404
-73 537 -41 80 -130 169 -210 212 -143 77 -345 78 -503 1 -78 -38 -181 -139
-225 -222 -61 -117 -66 -153 -66 -548 l0 -353 -335 0 -335 0 0 491 c0 338 3
497 11 512 17 34 1182 1197 1199 1197 8 0 279 -264 601 -587z"/>
</g>
</svg>
