<?xml version="1.0" standalone="no"?>
<!DOCTYPE svg PUBLIC "-//W3C//DTD SVG 20010904//EN"
 "http://www.w3.org/TR/2001/REC-SVG-20010904/DTD/svg10.dtd">
<svg version="1.0" xmlns="http://www.w3.org/2000/svg"
 width="512.000000pt" height="512.000000pt" viewBox="0 0 512.000000 512.000000"
 preserveAspectRatio="xMidYMid meet">

<g transform="translate(0.000000,512.000000) scale(0.100000,-0.100000)"
fill="#000000" stroke="none">
<path d="M655 5109 c-243 -41 -460 -202 -570 -424 -88 -179 -80 25 -80 -2125
0 -2150 -8 -1946 80 -2125 76 -153 198 -275 350 -350 179 -88 -25 -80 2125
-80 2150 0 1946 -8 2125 80 153 76 275 198 350 350 88 179 80 -25 80 2125 0
2150 8 1946 -80 2125 -76 153 -197 274 -350 350 -178 87 29 79 -2095 81 -1037
1 -1907 -2 -1935 -7z m3804 -244 c146 -35 286 -143 355 -274 70 -134 66 1 66
-2031 0 -2032 4 -1897 -66 -2031 -69 -131 -209 -239 -355 -274 -56 -13 -299
-15 -1896 -15 -1284 0 -1848 3 -1885 11 -150 31 -301 144 -372 278 -70 134
-66 -1 -66 2031 0 2032 -4 1897 66 2031 68 129 209 239 350 273 91 22 3710 23
3803 1z"/>
<path d="M2466 4058 c-214 -163 -1497 -1208 -1510 -1230 -32 -53 -15 -116 43
-155 32 -22 43 -23 222 -23 l189 0 0 -770 c0 -847 -2 -813 60 -845 26 -14 81
-15 394 -13 348 3 365 4 386 23 50 44 50 49 50 605 l0 520 260 0 260 0 0 -520
c0 -556 0 -561 50 -605 21 -19 38 -20 386 -23 313 -2 368 -1 394 13 62 32 60
-2 60 845 l0 770 185 0 c140 0 193 3 213 14 84 43 95 134 24 200 -39 37 -1430
1160 -1496 1208 -58 42 -101 38 -170 -14z m651 -679 c301 -243 559 -452 573
-465 l25 -24 -83 0 c-80 0 -83 -1 -120 -34 l-37 -34 -3 -781 -2 -781 -205 0
-205 0 0 531 c0 482 -2 534 -17 560 -34 58 -42 59 -483 59 -441 0 -449 -1
-483 -59 -15 -26 -17 -78 -17 -560 l0 -531 -205 0 -205 0 -2 780 -3 780 -33
32 c-30 31 -37 33 -120 38 l-87 5 573 463 c316 254 578 462 582 462 5 0 256
-199 557 -441z"/>
</g>
</svg>
