<?xml version="1.0" standalone="no"?>
<!DOCTYPE svg PUBLIC "-//W3C//DTD SVG 20010904//EN"
 "http://www.w3.org/TR/2001/REC-SVG-20010904/DTD/svg10.dtd">
<svg version="1.0" xmlns="http://www.w3.org/2000/svg"
 width="512.000000pt" height="512.000000pt" viewBox="0 0 512.000000 512.000000"
 preserveAspectRatio="xMidYMid meet">

<g transform="translate(0.000000,512.000000) scale(0.100000,-0.100000)"
fill="#000000" stroke="none">
<path d="M2438 5110 c-324 -30 -620 -167 -853 -395 -185 -181 -309 -396 -377
-655 -26 -100 -31 -138 -35 -286 -4 -128 -1 -195 11 -271 70 -442 350 -825
754 -1028 193 -97 398 -145 622 -145 285 0 531 73 765 228 270 178 465 436
564 745 98 305 80 670 -47 964 -239 555 -810 897 -1404 843z m322 -415 c181
-37 351 -127 488 -259 134 -128 219 -272 274 -462 20 -70 23 -100 22 -259 0
-167 -2 -186 -28 -269 -87 -285 -275 -502 -541 -627 -146 -68 -215 -83 -410
-83 -148 -1 -181 2 -255 22 -342 94 -601 345 -707 688 -25 83 -27 100 -27 274
0 173 2 191 27 273 15 48 46 125 68 170 203 405 648 622 1089 532z"/>
<path d="M1628 1969 c-733 -57 -1370 -583 -1563 -1294 -35 -127 -53 -243 -61
-381 -8 -129 1 -168 53 -225 67 -75 -134 -69 2503 -69 2609 0 2433 -4 2497 62
64 66 74 130 52 326 -59 537 -344 1003 -799 1302 -250 164 -525 256 -840 280
-159 12 -1683 11 -1842 -1z m1962 -413 c471 -94 858 -409 1029 -837 36 -90 81
-252 81 -291 l0 -28 -2140 0 -2140 0 0 24 c0 43 47 210 85 301 194 469 637
798 1140 844 50 5 488 8 975 6 785 -2 895 -4 970 -19z"/>
</g>
</svg>
